<svg width="216" height="115" viewBox="0 0 216 115" fill="none" xmlns="http://www.w3.org/2000/svg">
<path fill-rule="evenodd" clip-rule="evenodd" d="M2.16015 7.02368e-05L15.6452 0.11007C16.2925 0.115631 16.9302 0.268324 17.5099 0.556604C18.0895 0.844883 18.5961 1.2612 18.9912 1.77407L67.1652 64.1521C68.2572 65.5641 67.2552 67.6191 65.4762 67.6191H51.3602C50.7016 67.6185 50.0521 67.4658 49.4623 67.1728C48.8726 66.8798 48.3585 66.4545 47.9602 65.9301L34.5232 47.4521L19.6532 65.9881C19.2534 66.4962 18.7436 66.9069 18.1621 67.1895C17.5807 67.472 16.9426 67.6189 16.2962 67.6191H2.14315C0.355154 67.6191 -0.643846 65.5451 0.465154 64.1361L24.0542 34.1151L0.444154 3.45507C-0.635846 2.03607 0.382154 -0.0129298 2.16215 0.00207024L2.16015 7.02368e-05ZM65.4602 7.02368e-05C67.2562 -0.0139298 68.2692 2.06807 67.1552 3.48307L46.1042 30.2101C44.6042 29.0231 32.9512 19.2201 44.1922 6.09507L45.9262 4.05507L46.2402 3.68507C46.9712 2.82307 47.6672 2.00007 47.8792 1.74307C48.9902 0.39007 49.9052 0.12007 51.2022 0.11007L65.4602 7.02368e-05Z" fill="#FFD900"/>
<path d="M88.17 14.954H88.224C93.138 14.954 97.458 18.14 97.458 20.408C97.458 21.596 96.81 22.676 95.028 22.676C92.868 22.676 91.95 21.812 91.95 20.786C91.356 19.922 89.736 19.274 87.468 19.274C81.69 19.274 76.506 23.81 76.506 27.644C76.506 29.588 77.478 30.29 78.882 30.29C80.394 30.29 82.446 29.858 85.308 29.048C88.062 28.292 90.438 27.752 93.192 27.752C97.728 27.752 101.292 30.074 101.292 34.934C101.292 38.174 100.212 40.874 98.268 43.142C94.272 48.056 86.874 50.81 80.664 50.81C73.698 50.81 71.214 45.788 71.214 44.006C71.214 42.278 72.348 40.82 74.184 40.82C75.966 40.82 76.344 43.034 76.992 44.276C77.748 45.734 78.99 46.49 81.042 46.49C85.308 46.49 90.762 44.222 93.678 40.982C95.406 39.362 95.892 37.472 95.892 35.258C95.892 32.936 94.704 32.18 92.49 32.18C90.114 32.18 88.062 32.666 85.254 33.422C82.446 34.286 80.07 34.718 77.748 34.718C73.914 34.718 71.106 32.99 71.106 28.184C71.106 22.19 78.828 14.954 88.17 14.954Z" fill="#FFD900"/>
<path d="M118.942 20.354V46.328C119.104 46.598 119.428 47.084 119.428 47.678C119.428 49.136 118.456 50.27 115.864 50.27C114.244 50.27 113.434 49.568 113.434 48.002C113.434 47.246 113.542 46.544 113.758 46.112V21.164L107.44 22.406C107.008 22.676 106.414 22.946 105.766 22.946C104.254 22.946 103.282 22.028 103.282 20.57C103.282 19.004 104.308 17.816 105.496 17.816C106.414 17.816 106.684 17.978 107.062 18.194L114.244 16.79C115 15.872 117.214 15.548 118.132 16.088L126.286 14.63C126.88 14.36 127.312 14.252 127.96 14.252C129.364 14.252 130.336 15.17 130.336 16.844C130.336 18.14 129.472 19.382 128.014 19.382C127.258 19.382 126.772 19.22 126.34 18.95L118.942 20.354Z" fill="#FFD900"/>
<path d="M149.967 36.986L136.629 37.85C133.713 43.628 133.119 44.762 132.957 45.626C132.849 46.382 132.903 47.3 132.903 48.002C132.903 49.19 132.201 50.27 129.717 50.27C127.719 50.27 126.909 49.082 126.909 47.786C126.909 46.598 127.935 44.654 129.879 40.658L139.275 22.19C140.409 20.138 140.949 18.788 141.165 17.708C141.111 15.818 142.299 14.09 144.297 14.09C146.133 14.09 147.105 15.224 147.105 16.142C147.105 17.06 146.727 17.384 146.727 18.14C146.727 19.814 151.479 28.562 152.775 31.532C156.771 39.686 159.255 45.194 159.255 47.084C159.255 49.082 158.013 50.27 156.069 50.27C154.395 50.27 153.207 49.406 153.207 48.218C153.207 47.354 153.531 46.76 153.531 46.274C153.531 45.464 152.991 43.682 149.967 36.986ZM138.735 33.584L148.185 32.936L143.811 23L138.735 33.584Z" fill="#FFD900"/>
<path d="M173.944 20.354V46.328C174.106 46.598 174.43 47.084 174.43 47.678C174.43 49.136 173.458 50.27 170.866 50.27C169.246 50.27 168.436 49.568 168.436 48.002C168.436 47.246 168.544 46.544 168.76 46.112V21.164L162.442 22.406C162.01 22.676 161.416 22.946 160.768 22.946C159.256 22.946 158.284 22.028 158.284 20.57C158.284 19.004 159.31 17.816 160.498 17.816C161.416 17.816 161.686 17.978 162.064 18.194L169.246 16.79C170.002 15.872 172.216 15.548 173.134 16.088L181.288 14.63C181.882 14.36 182.314 14.252 182.962 14.252C184.366 14.252 185.338 15.17 185.338 16.844C185.338 18.14 184.474 19.382 183.016 19.382C182.26 19.382 181.774 19.22 181.342 18.95L173.944 20.354Z" fill="#FFD900"/>
<path d="M193.716 35.042V45.518L208.62 44.438C209.052 44.006 209.646 43.682 210.348 43.682C212.184 43.682 213.372 45.032 213.372 46.22C213.372 48.542 211.86 48.974 208.998 48.974L193.77 50.054C193.338 50.54 192.258 50.972 190.692 50.972C189.18 50.972 187.83 50.054 187.83 48.218C187.83 47.3 188.154 46.436 188.532 45.788V35.69C187.884 35.096 187.56 34.232 187.56 33.206C187.56 32.18 188.1 31.154 188.532 30.722V22.082C187.722 21.65 187.398 20.84 187.398 19.976C187.398 18.95 187.722 18.248 188.208 17.87C187.992 17.654 187.938 17.33 187.938 17.006C187.938 15.872 189.288 15.062 190.962 15.062C192.744 15.062 193.716 15.926 193.716 17.06L206.568 15.926C207.108 15.548 207.918 15.116 208.566 15.116C210.618 15.116 211.644 16.304 211.644 17.6C211.644 19.49 210.402 20.786 208.512 20.786C207.81 20.786 207.27 20.624 206.676 20.354L193.716 21.488V30.56L204.03 29.264C204.57 28.886 205.272 28.508 205.974 28.508C207.756 28.508 208.944 29.912 208.944 31.316C208.944 33.206 207.756 34.07 205.758 34.07C205.326 34.07 204.894 33.908 204.516 33.692L193.716 35.042Z" fill="#FFD900"/>
<path d="M5.35502 103.47V88.71L1.89002 89.34C1.71002 89.475 1.48502 89.655 1.26002 89.655C0.76502 89.655 0.27002 89.43 0.27002 88.305C0.27002 87.855 0.63002 87.27 1.03502 87.27C1.35002 87.27 1.57502 87.36 1.75502 87.45L5.35502 86.82C5.35502 78.675 6.12002 74.94 10.8 74.94C13.005 74.94 16.065 76.965 16.065 78.36C16.065 78.855 15.795 79.665 14.985 79.665C14.355 79.665 13.95 79.215 14.085 78.675C13.545 77.73 12.06 76.875 10.53 76.875C8.19002 76.875 7.56002 79.215 7.56002 86.46L14.13 85.335C14.31 85.245 14.58 84.93 14.805 84.93C15.525 84.93 15.93 85.425 15.93 86.055C15.93 86.865 15.615 87.36 15.03 87.36C14.805 87.36 14.535 87.27 14.445 87.18L7.56002 88.35V103.335C7.74002 103.56 7.87502 103.875 7.87502 104.19C7.87502 104.91 7.38002 105.225 6.52502 105.225C5.53502 105.225 5.13002 104.91 5.13002 104.145C5.13002 103.965 5.26502 103.695 5.35502 103.47Z" fill="#FFD900"/>
<path d="M27.4265 84.84H27.4715C32.6915 84.84 33.9515 90.105 33.9515 93.345C33.9515 96.99 31.7015 100.455 30.6665 101.535C27.3365 104.955 25.2665 105.81 21.4865 105.81C19.0115 105.81 15.5915 103.515 15.5915 98.655C15.5915 90.69 20.9915 84.84 27.4265 84.84ZM27.1115 86.73H27.0665C22.2065 86.73 17.7965 92.085 17.7965 98.295C17.7965 101.31 19.7315 103.92 21.9815 103.92C24.8165 103.92 26.7515 102.75 28.6415 100.86C30.6665 98.79 31.7465 96.225 31.7465 93.345C31.7465 90.015 30.4415 86.73 27.1115 86.73Z" fill="#FFD900"/>
<path d="M38.4789 103.56V86.955L38.2089 86.235C38.2089 85.695 38.9289 85.2 39.6489 85.2C40.4139 85.2 40.9539 85.605 40.9539 86.145C40.9539 86.325 40.9089 86.595 40.6839 86.82V89.925H40.7739C43.8339 87.54 47.4789 85.29 49.6389 85.29C50.8089 85.29 51.6639 86.775 51.6639 90.06C51.6639 90.69 51.2589 91.185 50.2689 91.185C49.5489 91.185 49.1439 90.87 49.1439 90.465C49.1439 90.15 49.2789 89.745 49.4589 89.565C49.4589 88.71 49.2339 87.495 48.8289 87.495C47.5239 87.495 43.6539 89.655 40.6839 92.58V103.29C40.9089 103.38 41.0889 103.74 41.0889 104.01C41.0889 104.865 40.6839 105.225 39.2439 105.225C38.4789 105.225 38.0739 104.865 38.0739 104.19C38.0739 103.875 38.2089 103.65 38.4789 103.56Z" fill="#FFD900"/>
<path d="M72.759 85.02H72.804C77.889 85.02 79.014 89.205 79.014 90.42C79.014 91.725 77.304 93.03 66.099 95.28L64.389 95.64C64.074 96.495 63.894 97.845 63.894 99.195C63.894 102.57 65.604 103.785 68.079 103.785C72.444 103.785 75.684 99.825 76.404 98.61C76.134 97.845 76.764 97.17 77.664 97.17C78.609 97.17 78.834 97.845 78.834 98.385C78.834 98.97 74.829 105.675 67.809 105.675C64.434 105.675 61.689 104.055 61.689 99.375C61.689 91.05 68.034 85.02 72.759 85.02ZM72.759 86.865H72.714C69.744 86.865 66.369 90.33 64.884 93.795C74.514 91.905 76.854 90.96 76.854 90.465C76.854 89.52 75.954 86.865 72.759 86.865Z" fill="#FFD900"/>
<path d="M88.1149 105.405H88.0699C87.4399 105.405 86.8099 105.045 86.7649 103.83C86.7649 103.29 85.7749 100.275 84.7849 97.575C83.3899 93.75 81.9049 89.295 81.8599 87.27C81.6799 87.09 81.6349 86.82 81.6349 86.505C81.6349 86.01 82.1749 85.335 83.1199 85.335C83.9749 85.335 84.4699 86.01 84.4699 86.37C84.4699 86.73 84.2899 87.045 84.1099 87.27C84.1099 89.115 85.3699 92.85 86.4949 96.27L88.3399 101.67C89.1949 99.195 91.3099 95.37 92.4349 93.48C93.8749 91.095 95.3599 88.575 96.2599 86.55C96.7099 85.425 97.0249 84.975 97.7449 84.975C98.3749 84.975 98.8249 85.29 98.8249 86.055C98.8249 87.315 96.6199 90.555 94.4149 94.155C92.0749 98.025 89.8249 102.48 89.4199 104.235C89.1949 105.045 88.7899 105.405 88.1149 105.405Z" fill="#FFD900"/>
<path d="M110.376 85.02H110.421C115.506 85.02 116.631 89.205 116.631 90.42C116.631 91.725 114.921 93.03 103.716 95.28L102.006 95.64C101.691 96.495 101.511 97.845 101.511 99.195C101.511 102.57 103.221 103.785 105.696 103.785C110.061 103.785 113.301 99.825 114.021 98.61C113.751 97.845 114.381 97.17 115.281 97.17C116.226 97.17 116.451 97.845 116.451 98.385C116.451 98.97 112.446 105.675 105.426 105.675C102.051 105.675 99.3062 104.055 99.3062 99.375C99.3062 91.05 105.651 85.02 110.376 85.02ZM110.376 86.865H110.331C107.361 86.865 103.986 90.33 102.501 93.795C112.131 91.905 114.471 90.96 114.471 90.465C114.471 89.52 113.571 86.865 110.376 86.865Z" fill="#FFD900"/>
<path d="M121.052 103.56V86.955L120.782 86.235C120.782 85.695 121.502 85.2 122.222 85.2C122.987 85.2 123.527 85.605 123.527 86.145C123.527 86.325 123.482 86.595 123.257 86.82V89.925H123.347C126.407 87.54 130.052 85.29 132.212 85.29C133.382 85.29 134.237 86.775 134.237 90.06C134.237 90.69 133.832 91.185 132.842 91.185C132.122 91.185 131.717 90.87 131.717 90.465C131.717 90.15 131.852 89.745 132.032 89.565C132.032 88.71 131.807 87.495 131.402 87.495C130.097 87.495 126.227 89.655 123.257 92.58V103.29C123.482 103.38 123.662 103.74 123.662 104.01C123.662 104.865 123.257 105.225 121.817 105.225C121.052 105.225 120.647 104.865 120.647 104.19C120.647 103.875 120.782 103.65 121.052 103.56Z" fill="#FFD900"/>
<path d="M145.54 105.27L135.865 87.765C135.46 87.54 135.19 87.135 135.19 86.595C135.19 85.83 135.955 85.38 136.585 85.38C137.665 85.38 138.025 86.1 137.89 86.91L146.575 102.615L152.29 86.64C152.29 85.965 152.56 85.245 153.505 85.245C154.405 85.245 154.99 85.74 154.99 86.415C154.99 86.865 154.72 87.225 154.225 87.45L146.71 108.15C145 112.92 142.705 114.09 139.69 114.09C137.125 114.09 135.1 112.065 134.605 109.905C134.47 109.455 134.065 109.635 134.065 108.96C134.065 108.015 134.605 107.61 135.28 107.61C136.225 107.61 136.855 107.925 136.855 108.645C136.855 108.96 136.72 109.185 136.54 109.32C136.675 110.58 138.07 112.2 139.78 112.2C142.255 112.2 143.785 110.49 145.54 105.27Z" fill="#FFD900"/>
<path d="M167.964 84.84H168.009C173.229 84.84 174.489 90.105 174.489 93.345C174.489 96.99 172.239 100.455 171.204 101.535C167.874 104.955 165.804 105.81 162.024 105.81C159.549 105.81 156.129 103.515 156.129 98.655C156.129 90.69 161.529 84.84 167.964 84.84ZM167.649 86.73H167.604C162.744 86.73 158.334 92.085 158.334 98.295C158.334 101.31 160.269 103.92 162.519 103.92C165.354 103.92 167.289 102.75 169.179 100.86C171.204 98.79 172.284 96.225 172.284 93.345C172.284 90.015 170.979 86.73 167.649 86.73Z" fill="#FFD900"/>
<path d="M181.266 92.22V103.425C181.491 103.65 181.536 103.83 181.536 104.145C181.536 104.865 180.726 105.225 179.961 105.225C179.286 105.225 178.656 104.865 178.656 104.28C178.656 103.92 178.701 103.65 179.061 103.425V93.57C178.701 93.39 178.476 93.03 178.476 92.625C178.476 92.175 178.656 91.725 179.061 91.095V86.595C178.881 86.325 178.746 86.01 178.746 85.65C178.746 85.065 179.601 84.48 180.366 84.48C181.446 84.48 181.671 84.975 181.671 85.56C181.671 85.965 181.446 86.235 181.266 86.46V90.015C186.396 85.83 189.906 84.48 191.436 84.48C193.011 84.48 194.091 85.695 194.091 86.775V103.245C194.181 103.425 194.316 103.65 194.316 104.01C194.316 104.91 193.821 105.225 192.876 105.225C192.066 105.225 191.571 104.865 191.571 104.145C191.571 103.83 191.706 103.605 191.886 103.38V87.675C191.886 87.27 191.076 86.775 190.581 86.775C189.771 86.775 186.351 88.08 181.266 92.22Z" fill="#FFD900"/>
<path d="M209.561 85.02H209.606C214.691 85.02 215.816 89.205 215.816 90.42C215.816 91.725 214.106 93.03 202.901 95.28L201.191 95.64C200.876 96.495 200.696 97.845 200.696 99.195C200.696 102.57 202.406 103.785 204.881 103.785C209.246 103.785 212.486 99.825 213.206 98.61C212.936 97.845 213.566 97.17 214.466 97.17C215.411 97.17 215.636 97.845 215.636 98.385C215.636 98.97 211.631 105.675 204.611 105.675C201.236 105.675 198.491 104.055 198.491 99.375C198.491 91.05 204.836 85.02 209.561 85.02ZM209.561 86.865H209.516C206.546 86.865 203.171 90.33 201.686 93.795C211.316 91.905 213.656 90.96 213.656 90.465C213.656 89.52 212.756 86.865 209.561 86.865Z" fill="#FFD900"/>
</svg>
