<svg width="220" height="71" viewBox="0 0 220 71" fill="none" xmlns="http://www.w3.org/2000/svg">
<path fill-rule="evenodd" clip-rule="evenodd" d="M2.16015 7.02368e-05L15.6452 0.11007C16.2925 0.115631 16.9302 0.268324 17.5099 0.556604C18.0895 0.844883 18.5961 1.2612 18.9912 1.77407L67.1652 64.1521C68.2572 65.5641 67.2552 67.6191 65.4762 67.6191H51.3602C50.7016 67.6185 50.0521 67.4658 49.4623 67.1728C48.8726 66.8798 48.3585 66.4545 47.9602 65.9301L34.5232 47.4521L19.6532 65.9881C19.2534 66.4962 18.7436 66.9069 18.1621 67.1895C17.5807 67.472 16.9426 67.6189 16.2962 67.6191H2.14315C0.355154 67.6191 -0.643846 65.5451 0.465154 64.1361L24.0542 34.1151L0.444154 3.45507C-0.635846 2.03607 0.382154 -0.0129298 2.16215 0.00207024L2.16015 7.02368e-05ZM65.4602 7.02368e-05C67.2562 -0.0139298 68.2692 2.06807 67.1552 3.48307L46.1042 30.2101C44.6042 29.0231 32.9512 19.2201 44.1922 6.09507L45.9262 4.05507L46.2402 3.68507C46.9712 2.82307 47.6672 2.00007 47.8792 1.74307C48.9902 0.39007 49.9052 0.12007 51.2022 0.11007L65.4602 7.02368e-05Z" fill="#FFD900"/>
<path d="M94.17 3.954H94.224C99.138 3.954 103.458 7.14 103.458 9.408C103.458 10.596 102.81 11.676 101.028 11.676C98.868 11.676 97.95 10.812 97.95 9.786C97.356 8.922 95.736 8.274 93.468 8.274C87.69 8.274 82.506 12.81 82.506 16.644C82.506 18.588 83.478 19.29 84.882 19.29C86.394 19.29 88.446 18.858 91.308 18.048C94.062 17.292 96.438 16.752 99.192 16.752C103.728 16.752 107.292 19.074 107.292 23.934C107.292 27.174 106.212 29.874 104.268 32.142C100.272 37.056 92.874 39.81 86.664 39.81C79.698 39.81 77.214 34.788 77.214 33.006C77.214 31.278 78.348 29.82 80.184 29.82C81.966 29.82 82.344 32.034 82.992 33.276C83.748 34.734 84.99 35.49 87.042 35.49C91.308 35.49 96.762 33.222 99.678 29.982C101.406 28.362 101.892 26.472 101.892 24.258C101.892 21.936 100.704 21.18 98.49 21.18C96.114 21.18 94.062 21.666 91.254 22.422C88.446 23.286 86.07 23.718 83.748 23.718C79.914 23.718 77.106 21.99 77.106 17.184C77.106 11.19 84.828 3.954 94.17 3.954Z" fill="#FFD900"/>
<path d="M124.942 9.354V35.328C125.104 35.598 125.428 36.084 125.428 36.678C125.428 38.136 124.456 39.27 121.864 39.27C120.244 39.27 119.434 38.568 119.434 37.002C119.434 36.246 119.542 35.544 119.758 35.112V10.164L113.44 11.406C113.008 11.676 112.414 11.946 111.766 11.946C110.254 11.946 109.282 11.028 109.282 9.57C109.282 8.004 110.308 6.816 111.496 6.816C112.414 6.816 112.684 6.978 113.062 7.194L120.244 5.79C121 4.872 123.214 4.548 124.132 5.088L132.286 3.63C132.88 3.36 133.312 3.252 133.96 3.252C135.364 3.252 136.336 4.17 136.336 5.844C136.336 7.14 135.472 8.382 134.014 8.382C133.258 8.382 132.772 8.22 132.34 7.95L124.942 9.354Z" fill="#FFD900"/>
<path d="M155.967 25.986L142.629 26.85C139.713 32.628 139.119 33.762 138.957 34.626C138.849 35.382 138.903 36.3 138.903 37.002C138.903 38.19 138.201 39.27 135.717 39.27C133.719 39.27 132.909 38.082 132.909 36.786C132.909 35.598 133.935 33.654 135.879 29.658L145.275 11.19C146.409 9.138 146.949 7.788 147.165 6.708C147.111 4.818 148.299 3.09 150.297 3.09C152.133 3.09 153.105 4.224 153.105 5.142C153.105 6.06 152.727 6.384 152.727 7.14C152.727 8.814 157.479 17.562 158.775 20.532C162.771 28.686 165.255 34.194 165.255 36.084C165.255 38.082 164.013 39.27 162.069 39.27C160.395 39.27 159.207 38.406 159.207 37.218C159.207 36.354 159.531 35.76 159.531 35.274C159.531 34.464 158.991 32.682 155.967 25.986ZM144.735 22.584L154.185 21.936L149.811 12L144.735 22.584Z" fill="#FFD900"/>
<path d="M179.944 9.354V35.328C180.106 35.598 180.43 36.084 180.43 36.678C180.43 38.136 179.458 39.27 176.866 39.27C175.246 39.27 174.436 38.568 174.436 37.002C174.436 36.246 174.544 35.544 174.76 35.112V10.164L168.442 11.406C168.01 11.676 167.416 11.946 166.768 11.946C165.256 11.946 164.284 11.028 164.284 9.57C164.284 8.004 165.31 6.816 166.498 6.816C167.416 6.816 167.686 6.978 168.064 7.194L175.246 5.79C176.002 4.872 178.216 4.548 179.134 5.088L187.288 3.63C187.882 3.36 188.314 3.252 188.962 3.252C190.366 3.252 191.338 4.17 191.338 5.844C191.338 7.14 190.474 8.382 189.016 8.382C188.26 8.382 187.774 8.22 187.342 7.95L179.944 9.354Z" fill="#FFD900"/>
<path d="M199.716 24.042V34.518L214.62 33.438C215.052 33.006 215.646 32.682 216.348 32.682C218.184 32.682 219.372 34.032 219.372 35.22C219.372 37.542 217.86 37.974 214.998 37.974L199.77 39.054C199.338 39.54 198.258 39.972 196.692 39.972C195.18 39.972 193.83 39.054 193.83 37.218C193.83 36.3 194.154 35.436 194.532 34.788V24.69C193.884 24.096 193.56 23.232 193.56 22.206C193.56 21.18 194.1 20.154 194.532 19.722V11.082C193.722 10.65 193.398 9.84 193.398 8.976C193.398 7.95 193.722 7.248 194.208 6.87C193.992 6.654 193.938 6.33 193.938 6.006C193.938 4.872 195.288 4.062 196.962 4.062C198.744 4.062 199.716 4.926 199.716 6.06L212.568 4.926C213.108 4.548 213.918 4.116 214.566 4.116C216.618 4.116 217.644 5.304 217.644 6.6C217.644 8.49 216.402 9.786 214.512 9.786C213.81 9.786 213.27 9.624 212.676 9.354L199.716 10.488V19.56L210.03 18.264C210.57 17.886 211.272 17.508 211.974 17.508C213.756 17.508 214.944 18.912 214.944 20.316C214.944 22.206 213.756 23.07 211.758 23.07C211.326 23.07 210.894 22.908 210.516 22.692L199.716 24.042Z" fill="#FFD900"/>
<path d="M80.451 64.014V54.502L78.218 54.908C78.102 54.995 77.957 55.111 77.812 55.111C77.493 55.111 77.174 54.966 77.174 54.241C77.174 53.951 77.406 53.574 77.667 53.574C77.87 53.574 78.015 53.632 78.131 53.69L80.451 53.284C80.451 48.035 80.944 45.628 83.96 45.628C85.381 45.628 87.353 46.933 87.353 47.832C87.353 48.151 87.179 48.673 86.657 48.673C86.251 48.673 85.99 48.383 86.077 48.035C85.729 47.426 84.772 46.875 83.786 46.875C82.278 46.875 81.872 48.383 81.872 53.052L86.106 52.327C86.222 52.269 86.396 52.066 86.541 52.066C87.005 52.066 87.266 52.385 87.266 52.791C87.266 53.313 87.063 53.632 86.686 53.632C86.541 53.632 86.367 53.574 86.309 53.516L81.872 54.27V63.927C81.988 64.072 82.075 64.275 82.075 64.478C82.075 64.942 81.756 65.145 81.205 65.145C80.567 65.145 80.306 64.942 80.306 64.449C80.306 64.333 80.393 64.159 80.451 64.014Z" fill="#FFD900"/>
<path d="M94.6748 52.008H94.7038C98.0678 52.008 98.8798 55.401 98.8798 57.489C98.8798 59.838 97.4298 62.071 96.7628 62.767C94.6168 64.971 93.2828 65.522 90.8468 65.522C89.2518 65.522 87.0478 64.043 87.0478 60.911C87.0478 55.778 90.5278 52.008 94.6748 52.008ZM94.4718 53.226H94.4428C91.3108 53.226 88.4688 56.677 88.4688 60.679C88.4688 62.622 89.7158 64.304 91.1658 64.304C92.9928 64.304 94.2398 63.55 95.4578 62.332C96.7628 60.998 97.4588 59.345 97.4588 57.489C97.4588 55.343 96.6178 53.226 94.4718 53.226Z" fill="#FFD900"/>
<path d="M101.797 64.072V53.371L101.623 52.907C101.623 52.559 102.087 52.24 102.551 52.24C103.044 52.24 103.392 52.501 103.392 52.849C103.392 52.965 103.363 53.139 103.218 53.284V55.285H103.276C105.248 53.748 107.597 52.298 108.989 52.298C109.743 52.298 110.294 53.255 110.294 55.372C110.294 55.778 110.033 56.097 109.395 56.097C108.931 56.097 108.67 55.894 108.67 55.633C108.67 55.43 108.757 55.169 108.873 55.053C108.873 54.502 108.728 53.719 108.467 53.719C107.626 53.719 105.132 55.111 103.218 56.996V63.898C103.363 63.956 103.479 64.188 103.479 64.362C103.479 64.913 103.218 65.145 102.29 65.145C101.797 65.145 101.536 64.913 101.536 64.478C101.536 64.275 101.623 64.13 101.797 64.072Z" fill="#FFD900"/>
<path d="M123.889 52.124H123.918C127.195 52.124 127.92 54.821 127.92 55.604C127.92 56.445 126.818 57.286 119.597 58.736L118.495 58.968C118.292 59.519 118.176 60.389 118.176 61.259C118.176 63.434 119.278 64.217 120.873 64.217C123.686 64.217 125.774 61.665 126.238 60.882C126.064 60.389 126.47 59.954 127.05 59.954C127.659 59.954 127.804 60.389 127.804 60.737C127.804 61.114 125.223 65.435 120.699 65.435C118.524 65.435 116.755 64.391 116.755 61.375C116.755 56.01 120.844 52.124 123.889 52.124ZM123.889 53.313H123.86C121.946 53.313 119.771 55.546 118.814 57.779C125.02 56.561 126.528 55.952 126.528 55.633C126.528 55.024 125.948 53.313 123.889 53.313Z" fill="#FFD900"/>
<path d="M133.785 65.261H133.756C133.35 65.261 132.944 65.029 132.915 64.246C132.915 63.898 132.277 61.955 131.639 60.215C130.74 57.75 129.783 54.879 129.754 53.574C129.638 53.458 129.609 53.284 129.609 53.081C129.609 52.762 129.957 52.327 130.566 52.327C131.117 52.327 131.436 52.762 131.436 52.994C131.436 53.226 131.32 53.429 131.204 53.574C131.204 54.763 132.016 57.17 132.741 59.374L133.93 62.854C134.481 61.259 135.844 58.794 136.569 57.576C137.497 56.039 138.454 54.415 139.034 53.11C139.324 52.385 139.527 52.095 139.991 52.095C140.397 52.095 140.687 52.298 140.687 52.791C140.687 53.603 139.266 55.691 137.845 58.011C136.337 60.505 134.887 63.376 134.626 64.507C134.481 65.029 134.22 65.261 133.785 65.261Z" fill="#FFD900"/>
<path d="M148.131 52.124H148.16C151.437 52.124 152.162 54.821 152.162 55.604C152.162 56.445 151.06 57.286 143.839 58.736L142.737 58.968C142.534 59.519 142.418 60.389 142.418 61.259C142.418 63.434 143.52 64.217 145.115 64.217C147.928 64.217 150.016 61.665 150.48 60.882C150.306 60.389 150.712 59.954 151.292 59.954C151.901 59.954 152.046 60.389 152.046 60.737C152.046 61.114 149.465 65.435 144.941 65.435C142.766 65.435 140.997 64.391 140.997 61.375C140.997 56.01 145.086 52.124 148.131 52.124ZM148.131 53.313H148.102C146.188 53.313 144.013 55.546 143.056 57.779C149.262 56.561 150.77 55.952 150.77 55.633C150.77 55.024 150.19 53.313 148.131 53.313Z" fill="#FFD900"/>
<path d="M155.011 64.072V53.371L154.837 52.907C154.837 52.559 155.301 52.24 155.765 52.24C156.258 52.24 156.606 52.501 156.606 52.849C156.606 52.965 156.577 53.139 156.432 53.284V55.285H156.49C158.462 53.748 160.811 52.298 162.203 52.298C162.957 52.298 163.508 53.255 163.508 55.372C163.508 55.778 163.247 56.097 162.609 56.097C162.145 56.097 161.884 55.894 161.884 55.633C161.884 55.43 161.971 55.169 162.087 55.053C162.087 54.502 161.942 53.719 161.681 53.719C160.84 53.719 158.346 55.111 156.432 56.996V63.898C156.577 63.956 156.693 64.188 156.693 64.362C156.693 64.913 156.432 65.145 155.504 65.145C155.011 65.145 154.75 64.913 154.75 64.478C154.75 64.275 154.837 64.13 155.011 64.072Z" fill="#FFD900"/>
<path d="M170.792 65.174L164.557 53.893C164.296 53.748 164.122 53.487 164.122 53.139C164.122 52.646 164.615 52.356 165.021 52.356C165.717 52.356 165.949 52.82 165.862 53.342L171.459 63.463L175.142 53.168C175.142 52.733 175.316 52.269 175.925 52.269C176.505 52.269 176.882 52.588 176.882 53.023C176.882 53.313 176.708 53.545 176.389 53.69L171.546 67.03C170.444 70.104 168.965 70.858 167.022 70.858C165.369 70.858 164.064 69.553 163.745 68.161C163.658 67.871 163.397 67.987 163.397 67.552C163.397 66.943 163.745 66.682 164.18 66.682C164.789 66.682 165.195 66.885 165.195 67.349C165.195 67.552 165.108 67.697 164.992 67.784C165.079 68.596 165.978 69.64 167.08 69.64C168.675 69.64 169.661 68.538 170.792 65.174Z" fill="#FFD900"/>
<path d="M185.243 52.008H185.272C188.636 52.008 189.448 55.401 189.448 57.489C189.448 59.838 187.998 62.071 187.331 62.767C185.185 64.971 183.851 65.522 181.415 65.522C179.82 65.522 177.616 64.043 177.616 60.911C177.616 55.778 181.096 52.008 185.243 52.008ZM185.04 53.226H185.011C181.879 53.226 179.037 56.677 179.037 60.679C179.037 62.622 180.284 64.304 181.734 64.304C183.561 64.304 184.808 63.55 186.026 62.332C187.331 60.998 188.027 59.345 188.027 57.489C188.027 55.343 187.186 53.226 185.04 53.226Z" fill="#FFD900"/>
<path d="M193.816 56.764V63.985C193.961 64.13 193.99 64.246 193.99 64.449C193.99 64.913 193.468 65.145 192.975 65.145C192.54 65.145 192.134 64.913 192.134 64.536C192.134 64.304 192.163 64.13 192.395 63.985V57.634C192.163 57.518 192.018 57.286 192.018 57.025C192.018 56.735 192.134 56.445 192.395 56.039V53.139C192.279 52.965 192.192 52.762 192.192 52.53C192.192 52.153 192.743 51.776 193.236 51.776C193.932 51.776 194.077 52.095 194.077 52.472C194.077 52.733 193.932 52.907 193.816 53.052V55.343C197.122 52.646 199.384 51.776 200.37 51.776C201.385 51.776 202.081 52.559 202.081 53.255V63.869C202.139 63.985 202.226 64.13 202.226 64.362C202.226 64.942 201.907 65.145 201.298 65.145C200.776 65.145 200.457 64.913 200.457 64.449C200.457 64.246 200.544 64.101 200.66 63.956V53.835C200.66 53.574 200.138 53.255 199.819 53.255C199.297 53.255 197.093 54.096 193.816 56.764Z" fill="#FFD900"/>
<path d="M212.05 52.124H212.079C215.356 52.124 216.081 54.821 216.081 55.604C216.081 56.445 214.979 57.286 207.758 58.736L206.656 58.968C206.453 59.519 206.337 60.389 206.337 61.259C206.337 63.434 207.439 64.217 209.034 64.217C211.847 64.217 213.935 61.665 214.399 60.882C214.225 60.389 214.631 59.954 215.211 59.954C215.82 59.954 215.965 60.389 215.965 60.737C215.965 61.114 213.384 65.435 208.86 65.435C206.685 65.435 204.916 64.391 204.916 61.375C204.916 56.01 209.005 52.124 212.05 52.124ZM212.05 53.313H212.021C210.107 53.313 207.932 55.546 206.975 57.779C213.181 56.561 214.689 55.952 214.689 55.633C214.689 55.024 214.109 53.313 212.05 53.313Z" fill="#FFD900"/>
</svg>
